<svg xmlns="http://www.w3.org/2000/svg" width="197" height="202" viewBox="0 0 197 202" version="1.1"><path d="M 88.409 43.609 C 82.160 45.826, 74.014 54.671, 74.004 59.250 C 74 60.832, 72.671 61, 60.122 61 C 43.352 61, 44.488 59.964, 43.125 76.500 C 36.003 162.908, 35.442 162, 96 162 C 156.490 162, 156.338 162.249, 148.869 75.503 C 147.543 60.106, 148.590 61, 131.878 61 C 119.607 61, 118 60.808, 118 59.338 C 118 48.626, 100.495 39.321, 88.409 43.609 M 51.634 79.750 C 51.265 85.662, 50.533 96.350, 50.006 103.500 C 46.328 153.472, 44.439 151.500, 96 151.500 C 136.315 151.500, 137.261 151.290, 142.108 141.278 C 144.483 136.370, 144.490 138.853, 142.010 104 C 141.481 96.575, 140.744 85.662, 140.372 79.750 C 139.694 69, 139.694 69, 96 69 C 52.306 69, 52.306 69, 51.634 79.750 M 74.018 76.966 C 70.870 82.848, 77.301 94.880, 85.929 99.250 C 99.384 106.065, 116.023 97.767, 118.373 83.069 C 119.951 73.198, 111.373 71.319, 109.604 81.149 C 106.816 96.638, 85.184 96.638, 82.396 81.149 C 81.279 74.942, 76.404 72.508, 74.018 76.966" stroke="none" fill="#648cfc" fill-rule="evenodd"/><path d="M 85.500 6.348 C 55.439 18.791, 11.270 47.403, 9.072 55.858 C 5.339 70.215, 5.051 120.029, 8.552 145.792 C 9.941 156.014, 60.083 188.853, 90.750 199.625 C 103.877 204.236, 179.236 161.781, 182.828 147.751 C 186.864 131.984, 186.853 69.379, 182.811 56 C 180.501 48.355, 157.176 32.092, 123 14.300 C 99.485 2.057, 97.092 1.550, 85.500 6.348 M 88.409 43.609 C 82.160 45.826, 74.014 54.671, 74.004 59.250 C 74 60.832, 72.671 61, 60.122 61 C 43.352 61, 44.488 59.964, 43.125 76.500 C 36.003 162.908, 35.442 162, 96 162 C 156.490 162, 156.338 162.249, 148.869 75.503 C 147.543 60.106, 148.590 61, 131.878 61 C 119.607 61, 118 60.808, 118 59.338 C 118 48.626, 100.495 39.321, 88.409 43.609 M 51.634 79.750 C 51.265 85.662, 50.533 96.350, 50.006 103.500 C 46.328 153.472, 44.439 151.500, 96 151.500 C 136.315 151.500, 137.261 151.290, 142.108 141.278 C 144.483 136.370, 144.490 138.853, 142.010 104 C 141.481 96.575, 140.744 85.662, 140.372 79.750 C 139.694 69, 139.694 69, 96 69 C 52.306 69, 52.306 69, 51.634 79.750 M 74.018 76.966 C 70.870 82.848, 77.301 94.880, 85.929 99.250 C 99.384 106.065, 116.023 97.767, 118.373 83.069 C 119.951 73.198, 111.373 71.319, 109.604 81.149 C 106.816 96.638, 85.184 96.638, 82.396 81.149 C 81.279 74.942, 76.404 72.508, 74.018 76.966" stroke="none" fill="#fbfcfc" fill-rule="evenodd"/></svg>